<svg width="1056" height="843" viewBox="0 0 1056 843" fill="none" xmlns="http://www.w3.org/2000/svg">
<path d="M499.831 218.954C493.314 220.669 463.13 223.412 432.603 225.127C348.225 229.586 355.084 234.731 296.774 293.727C276.537 314.307 280.31 330.429 270.363 369.874C246.353 465.228 337.248 464.884 385.954 403.487C426.428 352.38 452.153 335.917 519.724 318.424C582.15 302.303 599.301 289.269 599.301 258.399C599.301 224.785 551.967 205.577 499.831 218.954ZM511.493 295.787C441.178 312.594 393.843 336.26 365.374 370.56C320.441 424.411 304.32 435.731 301.919 414.122C300.547 403.146 320.098 340.376 327.644 330.429L353.027 297.157C388.356 250.509 385.955 252.224 446.323 249.137C475.135 247.765 505.661 245.024 513.893 243.309C567.401 231.99 562.6 283.439 511.493 295.787Z" fill="#CC0100" fill-opacity="0.1"/>
<path d="M973.857 262.517C953.277 235.763 922.064 191.859 904.571 165.448C799.956 8.3543 723.81 -18.4017 530.701 34.7633C453.526 56.0293 443.922 55.3446 321.471 13.8416C164.377 -39.3234 -15.6979 69.064 24.7761 215.525C50.1581 307.792 50.5006 306.421 25.1186 395.258C-10.2104 520.11 -7.80938 573.275 37.1236 657.653C172.266 911.13 494.343 901.524 582.494 641.873C609.934 561.268 620.224 540.69 645.949 515.308C691.225 470.718 707.346 469.689 762.569 510.163C840.773 567.444 911.088 582.194 978.659 555.44C1082.59 514.28 1081.22 402.461 973.857 262.517ZM805.444 491.985C687.109 407.264 587.639 456.998 531.044 629.527C496.401 735.171 477.879 759.524 405.506 795.882C281.683 857.965 125.617 765.698 66.9645 595.913C45.3555 532.801 49.8151 478.607 86.5161 365.417C104.352 310.537 105.038 297.501 93.0328 252.568C74.8538 184.311 73.8248 176.424 79.3128 150.013C103.323 35.4513 200.049 7.6683 326.616 48.8283C438.777 85.5293 466.217 85.871 580.436 54.315C707.346 18.986 759.482 40.2533 840.087 160.303C876.445 214.497 896.682 242.623 931.668 287.213C1072.64 467.288 980.031 617.18 805.444 491.985Z" fill="#CC0100" fill-opacity="0.1"/>
<path d="M748.505 213.466C661.04 145.552 678.876 105.763 530.7 116.053C460.728 120.855 491.598 135.261 355.77 146.923C256.986 155.498 173.98 175.392 173.98 275.548C173.98 304.017 172.265 318.767 166.777 336.946C125.617 472.431 185.642 624.722 279.624 624.379C340.678 624.036 377.036 594.882 427.8 505.016C458.67 450.479 501.545 408.632 542.019 396.284C548.193 394.569 586.266 391.825 626.74 390.453C743.703 386.337 779.375 367.814 796.525 302.301C805.786 267.315 797.211 251.196 748.505 213.466ZM607.875 376.391C491.255 376.391 452.839 401.428 392.814 514.961C286.484 715.616 134.192 572.931 213.425 346.208C225.087 312.937 225.773 309.505 223.372 282.408C217.541 211.407 262.474 180.881 388.698 168.876C460.042 162.016 477.192 155.842 520.41 143.151C543.048 136.291 582.15 134.577 602.73 138.693C621.938 142.466 661.04 193.914 716.263 236.789C810.588 309.848 759.138 376.048 607.875 376.391Z" fill="#CC0100" fill-opacity="0.1"/>
</svg>
