<svg width="972" height="180" viewBox="0 0 972 180" fill="none" xmlns="http://www.w3.org/2000/svg">
<path d="M896.397 241.628C877.456 217.003 848.728 176.593 832.628 152.283C736.343 7.68962 666.259 -16.9374 488.526 31.9972C417.496 51.571 408.656 50.9408 295.955 12.7403C151.369 -36.1942 -14.3684 63.5685 22.8831 198.375C46.2441 283.3 46.5593 282.039 23.1983 363.807C-9.31779 478.724 -7.10796 527.658 34.2474 605.322C158.629 838.63 455.062 829.788 536.195 590.798C561.45 516.607 570.921 497.666 594.597 474.304C636.268 433.262 651.106 432.315 701.932 469.568C773.909 522.291 838.626 535.867 900.817 511.242C996.471 473.358 995.208 370.436 896.397 241.628ZM741.393 452.837C632.48 374.857 540.93 420.633 488.841 579.434C456.956 676.671 439.91 699.087 373.299 732.552C259.335 789.694 115.695 704.77 61.7123 548.495C41.8238 490.405 45.9284 440.523 79.7073 336.34C96.1231 285.827 96.7542 273.828 85.7051 232.471C68.9735 169.645 68.0264 162.386 73.0775 138.076C95.1758 32.6304 184.201 7.0582 300.69 44.943C403.921 78.7236 429.176 79.0381 534.301 49.9931C651.106 17.4753 699.091 37.0503 773.278 147.548C806.741 197.429 825.367 223.317 857.567 264.359C987.316 430.105 902.079 568.07 741.393 452.837Z" fill="white" fill-opacity="0.1"/>
<path d="M688.988 196.48C608.487 133.97 624.903 97.3467 488.525 106.818C424.124 111.238 452.536 124.498 327.523 135.232C236.604 143.124 160.207 161.435 160.207 253.622C160.207 279.825 158.629 293.402 153.578 310.134C115.695 434.838 170.94 575.011 257.439 574.696C313.632 574.38 347.096 547.546 393.818 464.831C422.23 414.633 461.691 376.116 498.942 364.751C504.625 363.172 539.667 360.646 576.918 359.383C684.569 355.595 717.4 338.546 733.185 278.246C741.709 246.044 733.816 231.208 688.988 196.48ZM559.555 346.441C452.221 346.441 416.863 369.485 361.617 473.984C263.753 658.673 123.587 527.341 196.512 318.659C207.245 288.035 207.876 284.876 205.666 259.936C200.3 194.584 241.655 166.488 357.829 155.438C423.492 149.124 439.277 143.441 479.054 131.76C499.89 125.446 535.879 123.868 554.82 127.656C572.499 131.129 608.487 178.484 659.313 217.947C746.128 285.193 698.775 346.125 559.555 346.441Z" fill="white" fill-opacity="0.1"/>
</svg>
