<svg width="22" height="20" viewBox="0 0 22 20" fill="none" xmlns="http://www.w3.org/2000/svg">
<path fill-rule="evenodd" clip-rule="evenodd" d="M19.8324 4.17067C20.2128 3.99595 20.6605 4.16824 20.8321 4.55548C21.3028 5.61717 21.8333 7.39444 21.8333 10C21.8333 12.2478 21.4385 13.8799 21.0271 14.9684C20.8218 15.5118 20.6133 15.9171 20.4501 16.1938C20.3686 16.3321 20.2985 16.4382 20.2458 16.5132C20.2195 16.5507 20.1976 16.5805 20.1808 16.6026C20.1723 16.6136 20.1652 16.6228 20.1595 16.6301L20.1519 16.6396L20.1489 16.6433L20.1476 16.6449C20.1476 16.6449 20.1465 16.6463 19.5659 16.1538L20.1465 16.6463C19.8793 16.9727 19.4027 17.0168 19.082 16.7448C18.7629 16.4741 18.7184 15.9924 18.9814 15.6661C18.9814 15.6661 18.9832 15.6638 18.9849 15.6615C18.9902 15.6545 19.0008 15.6404 19.0158 15.619C19.0458 15.5762 19.0938 15.5044 19.1539 15.4023C19.2742 15.1983 19.4437 14.8728 19.6162 14.4162C19.9607 13.5048 20.3217 12.0599 20.3217 10C20.3217 7.61401 19.8373 6.0523 19.4543 5.18819C19.2826 4.80095 19.4519 4.34539 19.8324 4.17067Z" fill="white" fill-opacity="0.8"/>
<path fill-rule="evenodd" clip-rule="evenodd" d="M17.7156 7.19555C18.1243 7.10919 18.5244 7.37639 18.6093 7.79235C18.7203 8.33643 18.81 9.06558 18.81 10C18.81 11.1386 18.6768 11.9721 18.5344 12.5372C18.4633 12.8195 18.3902 13.0338 18.3308 13.1847C18.3012 13.2602 18.275 13.3196 18.2544 13.3638C18.2441 13.3858 18.2351 13.404 18.2278 13.4185L18.2181 13.4373L18.2142 13.4446L18.2126 13.4477L18.2118 13.4491C18.2118 13.4491 18.211 13.4505 17.5503 13.0769L18.211 13.4505C18.0083 13.8219 17.5482 13.9557 17.1833 13.7493C16.8215 13.5448 16.6892 13.0827 16.8846 12.7128L16.8896 12.7023C16.8965 12.6876 16.9097 12.6581 16.9273 12.6134C16.9625 12.5239 17.0153 12.3728 17.0702 12.1551C17.1797 11.7202 17.2984 11.0153 17.2984 10C17.2984 9.16644 17.2184 8.54225 17.1292 8.10508C17.0444 7.68912 17.3069 7.28191 17.7156 7.19555Z" fill="white" fill-opacity="0.8"/>
<path d="M21.108 1.31316C21.4032 1.01276 21.4032 0.525706 21.108 0.225302C20.8129 -0.0751008 20.3343 -0.0751008 20.0392 0.225302L15.5555 4.78858C15.5092 4.25162 15.4488 3.77638 15.3605 3.36387C15.1873 2.55523 14.8801 1.85212 14.2358 1.39124C13.9989 1.22182 13.7352 1.08522 13.4612 0.990059C12.6367 0.703694 11.8171 0.932599 10.9846 1.34416C10.1648 1.7495 9.17 2.41706 7.92958 3.24946L7.66075 3.42986C7.20936 3.73276 7.05409 3.834 6.8935 3.90613C6.72156 3.98336 6.54086 4.03853 6.35555 4.07038C6.18247 4.10013 5.99808 4.1026 5.45741 4.1026L5.29513 4.10254C4.06879 4.10188 3.21668 4.10142 2.45922 4.45809C1.75903 4.78779 1.0851 5.43315 0.719158 6.12439C0.323496 6.87176 0.277069 7.65334 0.211055 8.76466L0.203085 8.89846C0.180465 9.27617 0.166626 9.6497 0.166626 10C0.166626 10.3504 0.180465 10.7239 0.203085 11.1016L0.211055 11.2354C0.277069 12.3467 0.323496 13.1283 0.719158 13.8757C1.08511 14.5669 1.75903 15.2123 2.45922 15.542C3.0745 15.8317 3.75223 15.8858 4.64227 15.8955L1.89963 18.6868C1.60446 18.9872 1.60446 19.4743 1.89963 19.7747C2.19479 20.0751 2.67335 20.0751 2.96851 19.7747L21.108 1.31316Z" fill="white" fill-opacity="0.8"/>
<path d="M15.7868 10C15.7868 9.57516 15.4484 9.23077 15.031 9.23077C14.8348 9.23077 14.6561 9.3068 14.5218 9.43149L14.45 9.50797L8.40494 15.9427C8.05679 16.3132 8.13746 16.917 8.5702 17.1795C9.61703 17.8777 10.4834 18.4356 11.2221 18.7682C11.9701 19.1049 12.7134 19.2697 13.4612 19.01C13.7352 18.9148 13.9989 18.7782 14.2358 18.6088C14.9473 18.0999 15.2485 17.2958 15.4117 16.3732C15.5721 15.4662 15.627 14.2642 15.6953 12.7669L15.698 12.7079C15.7502 11.5643 15.7868 10.5661 15.7868 10Z" fill="white" fill-opacity="0.8"/>
</svg>
