<svg width="23" height="20" viewBox="0 0 23 20" fill="none" xmlns="http://www.w3.org/2000/svg">
<path d="M0.876653 9.64435C0.917108 7.34158 0.937336 6.19019 1.60037 5.20453C1.72138 5.02463 1.89894 4.81087 2.04777 4.66592C2.86314 3.87177 3.93966 3.87177 6.0927 3.87177C6.86192 3.87177 7.24653 3.87177 7.61317 3.75565C7.68935 3.73152 7.76473 3.7037 7.83913 3.67226C8.19718 3.52093 8.51831 3.26046 9.16058 2.73951C11.6945 0.684226 12.9615 -0.343419 14.0249 0.103007C14.2288 0.188599 14.4262 0.312148 14.6024 0.464528C15.5217 1.25931 15.5916 3.10844 15.7313 6.80672C15.783 8.17609 15.8182 9.3481 15.8182 10C15.8182 10.6519 15.783 11.8239 15.7313 13.1933C15.5916 16.8916 15.5217 18.7407 14.6024 19.5355C14.4262 19.6879 14.2288 19.8114 14.0249 19.897C12.9615 20.3434 11.6945 19.3158 9.16058 17.2605C8.51831 16.7395 8.19718 16.4791 7.83913 16.3277C7.76473 16.2963 7.68935 16.2685 7.61317 16.2443C7.24653 16.1282 6.86192 16.1282 6.0927 16.1282C3.93966 16.1282 2.86314 16.1282 2.04777 15.3341C1.89894 15.1891 1.72138 14.9754 1.60037 14.7955C0.937336 13.8098 0.917109 12.6584 0.876653 10.3557C0.874528 10.2347 0.873413 10.116 0.873413 10C0.873413 9.88402 0.874528 9.7653 0.876653 9.64435Z" fill="white" fill-opacity="0.8"/>
<path fill-rule="evenodd" clip-rule="evenodd" d="M19.8233 1.94024C20.1404 1.61523 20.6115 1.66792 20.8757 2.05793L20.3017 2.64641C20.8757 2.05793 20.8755 2.05752 20.8757 2.05793L20.8769 2.05962L20.8782 2.06152L20.8811 2.06594L20.8886 2.0773C20.8943 2.086 20.9013 2.09695 20.9096 2.11017C20.9262 2.13661 20.9479 2.17215 20.974 2.21697C21.026 2.30661 21.0953 2.43334 21.176 2.59862C21.3373 2.92932 21.5434 3.41365 21.7464 4.06297C22.1531 5.36384 22.5434 7.31421 22.5434 10.0003C22.5434 12.6864 22.1531 14.6367 21.7464 15.9376C21.5434 16.5869 21.3373 17.0713 21.176 17.402C21.0953 17.5672 21.026 17.694 20.974 17.7836C20.9479 17.8284 20.9262 17.864 20.9096 17.8904C20.9013 17.9036 20.8943 17.9146 20.8886 17.9233L20.8811 17.9346L20.8782 17.9391L20.8769 17.941C20.8766 17.9414 20.8757 17.9427 20.3017 17.3542L20.8757 17.9427C20.6115 18.3327 20.1404 18.3854 19.8233 18.0603C19.5078 17.7369 19.4639 17.1613 19.7239 16.7713C19.7245 16.7704 19.7256 16.7685 19.7273 16.7659C19.7326 16.7575 19.743 16.7406 19.7579 16.715C19.7875 16.6639 19.835 16.5781 19.8944 16.4561C20.0134 16.2123 20.1809 15.8233 20.3515 15.2776C20.692 14.1885 21.0489 12.4619 21.0489 10.0003C21.0489 7.53866 20.692 5.81209 20.3515 4.72295C20.1809 4.17726 20.0134 3.78832 19.8944 3.5445C19.835 3.42252 19.7875 3.33668 19.7579 3.28556C19.743 3.26 19.7326 3.24311 19.7273 3.23472C19.7256 3.23202 19.7245 3.23019 19.7239 3.22925C19.7239 3.22925 19.7239 3.22926 19.7239 3.22925" fill="white" fill-opacity="0.8"/>
<path fill-rule="evenodd" clip-rule="evenodd" d="M17.9463 5.51994C18.307 5.27339 18.762 5.43329 18.9624 5.87708L18.3092 6.3235C18.9624 5.87708 18.9622 5.87668 18.9624 5.87708L18.9631 5.87868L18.9639 5.88039L18.9655 5.88413L18.9694 5.89285L18.979 5.91534C18.9862 5.93259 18.995 5.95435 19.0052 5.98071C19.0256 6.03345 19.0515 6.10453 19.0808 6.19467C19.1394 6.37504 19.2118 6.63113 19.2821 6.96846C19.4228 7.64371 19.5546 8.63982 19.5546 10.0004C19.5546 11.361 19.4228 12.3572 19.2821 13.0324C19.2118 13.3697 19.1394 13.6258 19.0808 13.8062C19.0515 13.8963 19.0256 13.9674 19.0052 14.0202C18.995 14.0465 18.9862 14.0683 18.979 14.0855L18.9694 14.108L18.9655 14.1167L18.9639 14.1205L18.9631 14.1222C18.9629 14.1226 18.9624 14.1238 18.3092 13.6774L18.9624 14.1238C18.762 14.5676 18.307 14.7275 17.9463 14.4809C17.5886 14.2365 17.4578 13.6842 17.6509 13.2423L17.6559 13.2297C17.6627 13.2121 17.6758 13.1769 17.6932 13.1234C17.728 13.0165 17.7802 12.836 17.8344 12.5758C17.9428 12.056 18.0601 11.2137 18.0601 10.0004C18.0601 8.78719 17.9428 7.94483 17.8344 7.42509C17.7802 7.16491 17.728 6.98436 17.6932 6.87747C17.6758 6.82398 17.6627 6.78878 17.6559 6.77113L17.6509 6.75859C17.4578 6.31665 17.5886 5.7644 17.9463 5.51994Z" fill="white" fill-opacity="0.8"/>
</svg>
